<svg width="35" height="26" viewBox="0 0 35 26" fill="none" xmlns="http://www.w3.org/2000/svg">
<path fill-rule="evenodd" clip-rule="evenodd" d="M33.1219 1.87605C33.4013 2.15472 33.623 2.48578 33.7742 2.85025C33.9254 3.21472 34.0033 3.60545 34.0033 4.00005C34.0033 4.39465 33.9254 4.78538 33.7742 5.14985C33.623 5.51432 33.4013 5.84538 33.1219 6.12405L15.1219 24.124C14.8433 24.4034 14.5122 24.6251 14.1477 24.7763C13.7833 24.9276 13.3925 25.0054 12.9979 25.0054C12.6033 25.0054 12.2126 24.9276 11.8481 24.7763C11.4837 24.6251 11.1526 24.4034 10.8739 24.124L1.87393 15.1241C1.595 14.8451 1.37375 14.514 1.22279 14.1496C1.07184 13.7851 0.994141 13.3945 0.994141 13C0.994141 12.6056 1.07184 12.215 1.22279 11.8505C1.37375 11.4861 1.595 11.155 1.87393 10.876C2.15286 10.5971 2.48399 10.3759 2.84843 10.2249C3.21287 10.074 3.60347 9.99626 3.99793 9.99626C4.3924 9.99626 4.783 10.074 5.14743 10.2249C5.51187 10.3759 5.843 10.5971 6.12193 10.876L12.9979 17.7581L28.8739 1.87605C29.1526 1.59667 29.4837 1.37501 29.8481 1.22377C30.2126 1.07254 30.6033 0.99469 30.9979 0.99469C31.3925 0.99469 31.7833 1.07254 32.1477 1.22377C32.5122 1.37501 32.8433 1.59667 33.1219 1.87605Z" fill="#6E9C9F"/>
</svg>
